<svg width="22" height="21" viewBox="0 0 22 21" fill="none" xmlns="http://www.w3.org/2000/svg">
<path d="M11.001 1.99902C13.3278 1.99913 15.6024 2.69018 17.5361 3.98438C19.3489 5.19771 20.7859 6.88997 21.6895 8.86914L21.8633 9.26953L21.876 9.30273C22.0425 9.75166 22.0426 10.2454 21.876 10.6943C21.8719 10.7054 21.8678 10.7166 21.8633 10.7275C20.9761 12.8787 19.4699 14.7184 17.5361 16.0127C15.6024 17.3069 13.3278 17.9979 11.001 17.998C8.67399 17.998 6.39867 17.307 4.46484 16.0127C2.53105 14.7184 1.02489 12.8787 0.137695 10.7275C0.133192 10.7166 0.129113 10.7054 0.125 10.6943C-0.0416209 10.2454 -0.0415651 9.75167 0.125 9.30273L0.137695 9.26953C1.02487 7.11839 2.53111 5.27866 4.46484 3.98438C6.39867 2.6901 8.67399 1.99902 11.001 1.99902ZM11.001 3.99902C9.07008 3.99902 7.18181 4.57251 5.57715 5.64648C3.98271 6.7137 2.73891 8.22757 2.00098 9.99805C2.73889 11.7688 3.98247 13.2832 5.57715 14.3506C7.18181 15.4246 9.07008 15.998 11.001 15.998C12.9317 15.9979 14.8193 15.4245 16.4238 14.3506C18.0184 13.2833 19.2611 11.7687 19.999 9.99805C19.2611 8.22772 18.0182 6.71363 16.4238 5.64648C14.8193 4.57259 12.9317 3.99913 11.001 3.99902ZM11.001 5.99805C13.2098 5.99833 15.0008 7.78925 15.001 9.99805C15.001 12.207 13.2099 13.9978 11.001 13.998C8.79184 13.998 7.00098 12.2072 7.00098 9.99805C7.00117 7.78907 8.79196 5.99805 11.001 5.99805ZM11.001 7.99805C9.89653 7.99805 9.00117 8.89364 9.00098 9.99805C9.00098 11.1026 9.89641 11.998 11.001 11.998C12.1053 11.9978 13.001 11.1024 13.001 9.99805C13.0008 8.89382 12.1052 7.99833 11.001 7.99805Z" fill="black"/>
<line x1="2.41421" y1="1" x2="21" y2="19.5858" stroke="black" stroke-width="2" stroke-linecap="round"/>
</svg>
