<svg width="22" height="16" viewBox="0 0 22 16" fill="none" xmlns="http://www.w3.org/2000/svg">
<path d="M11.001 0C13.3278 0.000104189 15.6024 0.691155 17.5361 1.98535C19.3489 3.19868 20.7859 4.89094 21.6895 6.87012L21.8633 7.27051L21.876 7.30371C22.0425 7.75264 22.0426 8.2464 21.876 8.69531C21.8719 8.7064 21.8678 8.71758 21.8633 8.72852C20.9761 10.8797 19.4699 12.7194 17.5361 14.0137C15.6024 15.3079 13.3278 15.9989 11.001 15.999C8.67399 15.999 6.39867 15.3079 4.46484 14.0137C2.53105 12.7194 1.02489 10.8797 0.137695 8.72852C0.133192 8.71759 0.129113 8.70639 0.125 8.69531C-0.0416209 8.2464 -0.0415651 7.75264 0.125 7.30371L0.137695 7.27051C1.02487 5.11936 2.53111 3.27963 4.46484 1.98535C6.39867 0.691074 8.67399 0 11.001 0ZM11.001 2C9.07008 2 7.18181 2.57349 5.57715 3.64746C3.98271 4.71468 2.73891 6.22855 2.00098 7.99902C2.73889 9.76981 3.98247 11.2842 5.57715 12.3516C7.18181 13.4255 9.07008 13.999 11.001 13.999C12.9317 13.9989 14.8193 13.4255 16.4238 12.3516C18.0184 11.2843 19.2611 9.76966 19.999 7.99902C19.2611 6.2287 18.0182 4.71461 16.4238 3.64746C14.8193 2.57357 12.9317 2.0001 11.001 2ZM11.001 3.99902C13.2098 3.99931 15.0008 5.79023 15.001 7.99902C15.001 10.208 13.2099 11.9987 11.001 11.999C8.79184 11.999 7.00098 10.2082 7.00098 7.99902C7.00117 5.79005 8.79196 3.99902 11.001 3.99902ZM11.001 5.99902C9.89653 5.99902 9.00117 6.89462 9.00098 7.99902C9.00098 9.10359 9.89641 9.99902 11.001 9.99902C12.1053 9.99874 13.001 9.10342 13.001 7.99902C13.0008 6.89479 12.1052 5.99931 11.001 5.99902Z" fill="black"/>
</svg>
